<mxfile host="app.diagrams.net" modified="2024-02-19T15:43:36.278Z" agent="Mozilla/5.0 (Windows NT 10.0; Win64; x64) AppleWebKit/537.36 (KHTML, like Gecko) Chrome/116.0.0.0 Safari/537.36 OPR/102.0.0.0" etag="HpZFK6nIdYp3HVRW_eBO" version="23.1.5" type="github">
  <diagram name="Página-1" id="E0T26WtHQmeHysrm4aXM">
    <mxGraphModel dx="913" dy="655" grid="1" gridSize="10" guides="1" tooltips="1" connect="1" arrows="1" fold="1" page="1" pageScale="1" pageWidth="827" pageHeight="1169" math="0" shadow="0">
      <root>
        <mxCell id="0" />
        <mxCell id="1" parent="0" />
        <mxCell id="qeHINJmwUieazi7X8Wh1-1" value="Grau" style="ellipse;whiteSpace=wrap;html=1;" vertex="1" parent="1">
          <mxGeometry x="414" y="80" width="110" height="60" as="geometry" />
        </mxCell>
        <mxCell id="qeHINJmwUieazi7X8Wh1-2" value="Ano" style="ellipse;whiteSpace=wrap;html=1;" vertex="1" parent="1">
          <mxGeometry x="540" y="90" width="110" height="60" as="geometry" />
        </mxCell>
        <mxCell id="qeHINJmwUieazi7X8Wh1-3" value="Instituição" style="ellipse;whiteSpace=wrap;html=1;" vertex="1" parent="1">
          <mxGeometry x="640" y="130" width="140" height="60" as="geometry" />
        </mxCell>
        <mxCell id="qeHINJmwUieazi7X8Wh1-4" value="Andar?" style="ellipse;whiteSpace=wrap;html=1;" vertex="1" parent="1">
          <mxGeometry x="610" y="320" width="140" height="60" as="geometry" />
        </mxCell>
        <mxCell id="qeHINJmwUieazi7X8Wh1-5" value="Localidade" style="ellipse;whiteSpace=wrap;html=1;" vertex="1" parent="1">
          <mxGeometry x="590" y="380" width="140" height="60" as="geometry" />
        </mxCell>
        <mxCell id="qeHINJmwUieazi7X8Wh1-6" value="Num" style="ellipse;whiteSpace=wrap;html=1;" vertex="1" parent="1">
          <mxGeometry x="620" y="257.5" width="100" height="60" as="geometry" />
        </mxCell>
        <mxCell id="qeHINJmwUieazi7X8Wh1-7" value="Rua" style="ellipse;whiteSpace=wrap;html=1;" vertex="1" parent="1">
          <mxGeometry x="590" y="190" width="100" height="60" as="geometry" />
        </mxCell>
        <mxCell id="qeHINJmwUieazi7X8Wh1-8" value="NumMeC" style="ellipse;whiteSpace=wrap;html=1;fontStyle=4" vertex="1" parent="1">
          <mxGeometry x="80" y="150" width="140" height="70" as="geometry" />
        </mxCell>
        <mxCell id="qeHINJmwUieazi7X8Wh1-9" value="Nome" style="ellipse;whiteSpace=wrap;html=1;" vertex="1" parent="1">
          <mxGeometry x="40" y="240" width="140" height="80" as="geometry" />
        </mxCell>
        <mxCell id="qeHINJmwUieazi7X8Wh1-10" value="Sexo" style="ellipse;whiteSpace=wrap;html=1;" vertex="1" parent="1">
          <mxGeometry x="40" y="330" width="140" height="80" as="geometry" />
        </mxCell>
        <mxCell id="qeHINJmwUieazi7X8Wh1-11" value="DataNasc" style="ellipse;whiteSpace=wrap;html=1;" vertex="1" parent="1">
          <mxGeometry x="190" y="330" width="140" height="80" as="geometry" />
        </mxCell>
        <mxCell id="qeHINJmwUieazi7X8Wh1-12" value="CodPostal" style="ellipse;whiteSpace=wrap;html=1;" vertex="1" parent="1">
          <mxGeometry x="470" y="360" width="120" height="70" as="geometry" />
        </mxCell>
        <mxCell id="qeHINJmwUieazi7X8Wh1-13" value="Morada" style="ellipse;whiteSpace=wrap;html=1;" vertex="1" parent="1">
          <mxGeometry x="460" y="250" width="130" height="75" as="geometry" />
        </mxCell>
        <mxCell id="qeHINJmwUieazi7X8Wh1-14" value="NumTelef" style="ellipse;shape=doubleEllipse;whiteSpace=wrap;html=1;" vertex="1" parent="1">
          <mxGeometry x="254" y="130" width="160" height="80" as="geometry" />
        </mxCell>
        <mxCell id="qeHINJmwUieazi7X8Wh1-15" value="Habilitação" style="ellipse;shape=doubleEllipse;whiteSpace=wrap;html=1;" vertex="1" parent="1">
          <mxGeometry x="414" y="160" width="176" height="80" as="geometry" />
        </mxCell>
        <mxCell id="qeHINJmwUieazi7X8Wh1-16" value="ALUNO" style="rounded=0;whiteSpace=wrap;html=1;" vertex="1" parent="1">
          <mxGeometry x="200" y="250" width="180" height="60" as="geometry" />
        </mxCell>
        <mxCell id="qeHINJmwUieazi7X8Wh1-17" value="Idade" style="ellipse;whiteSpace=wrap;html=1;dashed=1;" vertex="1" parent="1">
          <mxGeometry x="340" y="330" width="130" height="80" as="geometry" />
        </mxCell>
        <mxCell id="qeHINJmwUieazi7X8Wh1-18" value="" style="endArrow=none;dashed=1;html=1;dashPattern=1 3;strokeWidth=2;rounded=0;entryX=0.75;entryY=1;entryDx=0;entryDy=0;" edge="1" parent="1" source="qeHINJmwUieazi7X8Wh1-17" target="qeHINJmwUieazi7X8Wh1-16">
          <mxGeometry width="50" height="50" relative="1" as="geometry">
            <mxPoint x="310" y="480" as="sourcePoint" />
            <mxPoint x="360" y="430" as="targetPoint" />
          </mxGeometry>
        </mxCell>
        <mxCell id="qeHINJmwUieazi7X8Wh1-19" value="" style="endArrow=none;html=1;rounded=0;" edge="1" parent="1" target="qeHINJmwUieazi7X8Wh1-16">
          <mxGeometry width="50" height="50" relative="1" as="geometry">
            <mxPoint x="270" y="330" as="sourcePoint" />
            <mxPoint x="280" y="340" as="targetPoint" />
          </mxGeometry>
        </mxCell>
        <mxCell id="qeHINJmwUieazi7X8Wh1-20" value="" style="endArrow=none;html=1;rounded=0;exitX=1;exitY=0;exitDx=0;exitDy=0;" edge="1" parent="1" source="qeHINJmwUieazi7X8Wh1-10" target="qeHINJmwUieazi7X8Wh1-16">
          <mxGeometry width="50" height="50" relative="1" as="geometry">
            <mxPoint x="172" y="360" as="sourcePoint" />
            <mxPoint x="180" y="340" as="targetPoint" />
          </mxGeometry>
        </mxCell>
        <mxCell id="qeHINJmwUieazi7X8Wh1-21" value="" style="endArrow=none;html=1;rounded=0;" edge="1" parent="1" source="qeHINJmwUieazi7X8Wh1-9" target="qeHINJmwUieazi7X8Wh1-16">
          <mxGeometry width="50" height="50" relative="1" as="geometry">
            <mxPoint x="169" y="352" as="sourcePoint" />
            <mxPoint x="237" y="320" as="targetPoint" />
          </mxGeometry>
        </mxCell>
        <mxCell id="qeHINJmwUieazi7X8Wh1-22" value="" style="endArrow=none;html=1;rounded=0;exitX=1;exitY=1;exitDx=0;exitDy=0;" edge="1" parent="1" source="qeHINJmwUieazi7X8Wh1-8" target="qeHINJmwUieazi7X8Wh1-16">
          <mxGeometry width="50" height="50" relative="1" as="geometry">
            <mxPoint x="190" y="220" as="sourcePoint" />
            <mxPoint x="210" y="290" as="targetPoint" />
          </mxGeometry>
        </mxCell>
        <mxCell id="qeHINJmwUieazi7X8Wh1-23" value="" style="endArrow=none;html=1;rounded=0;exitX=0.5;exitY=1;exitDx=0;exitDy=0;" edge="1" parent="1" source="qeHINJmwUieazi7X8Wh1-14" target="qeHINJmwUieazi7X8Wh1-16">
          <mxGeometry width="50" height="50" relative="1" as="geometry">
            <mxPoint x="209" y="220" as="sourcePoint" />
            <mxPoint x="261" y="260" as="targetPoint" />
          </mxGeometry>
        </mxCell>
        <mxCell id="qeHINJmwUieazi7X8Wh1-24" value="" style="endArrow=none;html=1;rounded=0;exitX=0;exitY=1;exitDx=0;exitDy=0;entryX=1;entryY=0;entryDx=0;entryDy=0;" edge="1" parent="1" source="qeHINJmwUieazi7X8Wh1-15" target="qeHINJmwUieazi7X8Wh1-16">
          <mxGeometry width="50" height="50" relative="1" as="geometry">
            <mxPoint x="209" y="220" as="sourcePoint" />
            <mxPoint x="261" y="260" as="targetPoint" />
          </mxGeometry>
        </mxCell>
        <mxCell id="qeHINJmwUieazi7X8Wh1-25" value="" style="endArrow=none;html=1;rounded=0;exitX=0;exitY=0.5;exitDx=0;exitDy=0;entryX=1;entryY=0.5;entryDx=0;entryDy=0;" edge="1" parent="1" source="qeHINJmwUieazi7X8Wh1-13" target="qeHINJmwUieazi7X8Wh1-16">
          <mxGeometry width="50" height="50" relative="1" as="geometry">
            <mxPoint x="450" y="238" as="sourcePoint" />
            <mxPoint x="390" y="260" as="targetPoint" />
          </mxGeometry>
        </mxCell>
        <mxCell id="qeHINJmwUieazi7X8Wh1-26" value="" style="endArrow=none;html=1;rounded=0;exitX=0.5;exitY=1;exitDx=0;exitDy=0;entryX=0.5;entryY=0;entryDx=0;entryDy=0;" edge="1" parent="1" source="qeHINJmwUieazi7X8Wh1-13" target="qeHINJmwUieazi7X8Wh1-12">
          <mxGeometry width="50" height="50" relative="1" as="geometry">
            <mxPoint x="470" y="298" as="sourcePoint" />
            <mxPoint x="390" y="290" as="targetPoint" />
          </mxGeometry>
        </mxCell>
        <mxCell id="qeHINJmwUieazi7X8Wh1-27" value="" style="endArrow=none;html=1;rounded=0;entryX=0;entryY=0;entryDx=0;entryDy=0;" edge="1" parent="1" source="qeHINJmwUieazi7X8Wh1-13" target="qeHINJmwUieazi7X8Wh1-5">
          <mxGeometry width="50" height="50" relative="1" as="geometry">
            <mxPoint x="535" y="335" as="sourcePoint" />
            <mxPoint x="540" y="360" as="targetPoint" />
          </mxGeometry>
        </mxCell>
        <mxCell id="qeHINJmwUieazi7X8Wh1-28" value="" style="endArrow=none;html=1;rounded=0;entryX=0;entryY=0.5;entryDx=0;entryDy=0;" edge="1" parent="1" source="qeHINJmwUieazi7X8Wh1-13" target="qeHINJmwUieazi7X8Wh1-4">
          <mxGeometry width="50" height="50" relative="1" as="geometry">
            <mxPoint x="570" y="300" as="sourcePoint" />
            <mxPoint x="611" y="399" as="targetPoint" />
          </mxGeometry>
        </mxCell>
        <mxCell id="qeHINJmwUieazi7X8Wh1-29" value="" style="endArrow=none;html=1;rounded=0;entryX=0;entryY=0.5;entryDx=0;entryDy=0;exitX=1;exitY=0.5;exitDx=0;exitDy=0;" edge="1" parent="1" source="qeHINJmwUieazi7X8Wh1-13" target="qeHINJmwUieazi7X8Wh1-6">
          <mxGeometry width="50" height="50" relative="1" as="geometry">
            <mxPoint x="575" y="327" as="sourcePoint" />
            <mxPoint x="620" y="360" as="targetPoint" />
          </mxGeometry>
        </mxCell>
        <mxCell id="qeHINJmwUieazi7X8Wh1-30" value="" style="endArrow=none;html=1;rounded=0;entryX=0;entryY=1;entryDx=0;entryDy=0;exitX=1;exitY=0;exitDx=0;exitDy=0;" edge="1" parent="1" source="qeHINJmwUieazi7X8Wh1-13" target="qeHINJmwUieazi7X8Wh1-7">
          <mxGeometry width="50" height="50" relative="1" as="geometry">
            <mxPoint x="600" y="298" as="sourcePoint" />
            <mxPoint x="630" y="298" as="targetPoint" />
          </mxGeometry>
        </mxCell>
        <mxCell id="qeHINJmwUieazi7X8Wh1-31" value="" style="endArrow=none;html=1;rounded=0;entryX=0;entryY=0.5;entryDx=0;entryDy=0;" edge="1" parent="1" source="qeHINJmwUieazi7X8Wh1-15" target="qeHINJmwUieazi7X8Wh1-3">
          <mxGeometry width="50" height="50" relative="1" as="geometry">
            <mxPoint x="581" y="271" as="sourcePoint" />
            <mxPoint x="615" y="251" as="targetPoint" />
          </mxGeometry>
        </mxCell>
        <mxCell id="qeHINJmwUieazi7X8Wh1-32" value="" style="endArrow=none;html=1;rounded=0;entryX=0;entryY=1;entryDx=0;entryDy=0;" edge="1" parent="1" source="qeHINJmwUieazi7X8Wh1-15" target="qeHINJmwUieazi7X8Wh1-2">
          <mxGeometry width="50" height="50" relative="1" as="geometry">
            <mxPoint x="586" y="188" as="sourcePoint" />
            <mxPoint x="650" y="170" as="targetPoint" />
          </mxGeometry>
        </mxCell>
        <mxCell id="qeHINJmwUieazi7X8Wh1-33" value="" style="endArrow=none;html=1;rounded=0;entryX=0.5;entryY=1;entryDx=0;entryDy=0;exitX=0.5;exitY=0;exitDx=0;exitDy=0;" edge="1" parent="1" source="qeHINJmwUieazi7X8Wh1-15" target="qeHINJmwUieazi7X8Wh1-1">
          <mxGeometry width="50" height="50" relative="1" as="geometry">
            <mxPoint x="546" y="173" as="sourcePoint" />
            <mxPoint x="566" y="151" as="targetPoint" />
          </mxGeometry>
        </mxCell>
      </root>
    </mxGraphModel>
  </diagram>
</mxfile>
